<svg version="1" xmlns="http://www.w3.org/2000/svg" width="409.333" height="409.333" viewBox="0 0 307.000000 307.000000"><path d="M1.2 32.8c-1 .7-1.2 12.1-1 53.8l.3 52.9h19l.5-30.9.5-30.9L33 101.5c16.7 31.8 15.3 29.7 19.8 29.3l3.7-.3 11.1-21.3c6.1-11.7 12.3-23.4 13.7-26l2.7-4.7v29.6c0 24.2.3 29.9 1.4 30.8.9.8 4.6 1.1 10.3.9l8.8-.3.3-52.4c.1-37.8-.1-52.8-.9-53.7-1.4-1.7-16-2-18.9-.4-1 .5-8.7 14.1-17.1 30.2-8.3 16.1-15.3 29.4-15.3 29.5-.1.1-7.1-13.1-15.5-29.3-11.9-22.9-15.9-29.8-17.8-30.5-3-1.1-16.3-1.2-18.1-.1zM149.3 34.1c-6.3 2.5-14.7 9.7-17.5 15.3-1.5 2.9-2.3 6.6-2.6 12.4-.5 9.8 1.2 15.4 6.6 21.4 4.4 4.9 9.9 7.7 22.8 11.7 12.5 3.8 16.6 6.4 17.8 11.4 1.2 4.8-.7 11.2-3.9 13.3-7.1 4.7-17.3 3.7-27.8-2.6-3.6-2.2-7.2-4-8-4-4.3 0-11.3 9.9-10.1 14.5.7 2.9 7.8 7.7 16.1 10.8 4.8 1.8 7.9 2.2 18.3 2.2 11.7 0 12.9-.2 18.2-2.8 12.7-6.2 20.7-20.1 19.6-34.1-.7-7.7-3.4-13.2-9.2-18.3-4.3-3.8-8.6-5.7-27.2-12.3-10.6-3.7-14.1-8.8-10.7-15.7 3.9-8.1 15.5-9.6 26.9-3.4 8.6 4.6 10.9 4.1 14.8-3.6 2.1-4.2 2-8.6-.2-10.6-1-.9-4.4-2.9-7.7-4.4-5.4-2.5-7.2-2.8-18.5-3-10.6-.3-13.3 0-17.7 1.8zM251 34.3c-9.1 3.1-15.3 7-21.9 13.7-10.3 10.4-15.5 23.3-15.5 38.5 0 15.1 4.6 26.7 14.7 37.2 11.6 12.1 23.6 17.3 40.1 17.3 10.4 0 17.1-1.6 25.7-6.2 6.2-3.2 12.9-8.9 12.9-10.8 0-.7-2.7-4-6-7.3l-5.9-6.2-2.8 1.7c-11.7 7.1-19.2 9.2-28.1 7.8-11.1-1.8-19.8-8.4-24.9-18.8-2.5-5-2.8-6.8-2.8-15.2 0-8.2.4-10.3 2.6-15.1 7.9-16.8 27-24 43.6-16.5 3.4 1.6 7 3.7 7.9 4.7.9 1.1 2.5 1.9 3.4 1.9 1.8 0 13-11.1 13-12.9 0-2.9-11.3-10.7-19.9-13.7-9.3-3.3-26.6-3.4-36.1-.1zM0 223v53l31.3-.2 31.2-.3.3-9.8.3-9.7H22v-86H0v53zM93.4 171c-4.4 1.4-12.4 8.7-14.5 13.5-5 10.9-.2 28.7 12.2 45.2 10 13.3 37.2 44.9 39.4 45.7 1.6.6 3.4.6 5 0 2.2-.8 29.7-32.7 39.4-45.7 12.6-16.8 17.3-34.2 12.2-45.2-2.4-5.3-10.3-12.2-15.5-13.6-9.5-2.6-21.4 1.7-32.4 11.6l-6.2 5.7-6.2-5.7c-11.1-10-23.9-14.4-33.4-11.5zM223.5 171.2c-.3.7-.4 24.5-.3 52.8l.3 51.5h22l.3-19.8.2-19.7h4.9c3.2 0 5.5.6 6.8 1.7 1.1 1 6.4 9 11.8 17.8 5.3 8.8 10.8 17 12.2 18.2 2.2 2.1 3.4 2.3 13.4 2.3s10.9-.2 10.9-1.9c0-2-21.6-36-25.7-40.2l-2.4-2.6 4.3-2.6c10.7-6.3 16.1-15.6 16.1-27.7 0-15.8-7.8-25-25-29.5-7.6-2-49.1-2.2-49.8-.3zm43 17.6c7.2 2.5 9.8 6.7 9.3 14.9-.7 11.1-6.1 15.2-20.9 16.1l-8.9.5V187h7.8c4.5.1 9.7.8 12.7 1.8z"/></svg>